<mxfile host="Electron" agent="Mozilla/5.0 (Windows NT 10.0; Win64; x64) AppleWebKit/537.36 (KHTML, like Gecko) draw.io/24.7.8 Chrome/128.0.6613.36 Electron/32.0.1 Safari/537.36" version="24.7.8">
  <diagram name="PÃ¡gina-1" id="Gi1P14nkVc_L1v6T6wQk">
    <mxGraphModel dx="1035" dy="626" grid="1" gridSize="10" guides="1" tooltips="1" connect="1" arrows="1" fold="1" page="1" pageScale="1" pageWidth="827" pageHeight="1169" math="0" shadow="0">
      <root>
        <mxCell id="0" />
        <mxCell id="1" parent="0" />
        <mxCell id="yFLwFhkpiV6u_VMQLXFh-1" value="Practica 2 - Ejercicio 6&lt;br&gt;Modelado Conceptual" style="text;html=1;align=left;verticalAlign=middle;resizable=0;points=[];autosize=1;strokeColor=none;fillColor=none;" vertex="1" parent="1">
          <mxGeometry x="20" width="140" height="40" as="geometry" />
        </mxCell>
        <mxCell id="yFLwFhkpiV6u_VMQLXFh-8" style="edgeStyle=orthogonalEdgeStyle;rounded=0;orthogonalLoop=1;jettySize=auto;html=1;entryX=0.5;entryY=0;entryDx=0;entryDy=0;" edge="1" parent="1" source="yFLwFhkpiV6u_VMQLXFh-3" target="yFLwFhkpiV6u_VMQLXFh-4">
          <mxGeometry relative="1" as="geometry" />
        </mxCell>
        <mxCell id="yFLwFhkpiV6u_VMQLXFh-9" style="edgeStyle=orthogonalEdgeStyle;rounded=0;orthogonalLoop=1;jettySize=auto;html=1;entryX=0.5;entryY=0;entryDx=0;entryDy=0;" edge="1" parent="1" source="yFLwFhkpiV6u_VMQLXFh-3" target="yFLwFhkpiV6u_VMQLXFh-5">
          <mxGeometry relative="1" as="geometry" />
        </mxCell>
        <mxCell id="yFLwFhkpiV6u_VMQLXFh-11" value="" style="edgeStyle=orthogonalEdgeStyle;rounded=0;orthogonalLoop=1;jettySize=auto;html=1;" edge="1" parent="1" source="yFLwFhkpiV6u_VMQLXFh-3" target="yFLwFhkpiV6u_VMQLXFh-10">
          <mxGeometry relative="1" as="geometry" />
        </mxCell>
        <mxCell id="yFLwFhkpiV6u_VMQLXFh-3" value="PERSONA" style="whiteSpace=wrap;html=1;" vertex="1" parent="1">
          <mxGeometry x="462" y="50" width="120" height="60" as="geometry" />
        </mxCell>
        <mxCell id="yFLwFhkpiV6u_VMQLXFh-21" value="" style="edgeStyle=orthogonalEdgeStyle;rounded=0;orthogonalLoop=1;jettySize=auto;html=1;" edge="1" parent="1" source="yFLwFhkpiV6u_VMQLXFh-4" target="yFLwFhkpiV6u_VMQLXFh-20">
          <mxGeometry relative="1" as="geometry" />
        </mxCell>
        <mxCell id="yFLwFhkpiV6u_VMQLXFh-25" value="" style="edgeStyle=orthogonalEdgeStyle;rounded=0;orthogonalLoop=1;jettySize=auto;html=1;" edge="1" parent="1" source="yFLwFhkpiV6u_VMQLXFh-4" target="yFLwFhkpiV6u_VMQLXFh-24">
          <mxGeometry relative="1" as="geometry" />
        </mxCell>
        <mxCell id="yFLwFhkpiV6u_VMQLXFh-67" style="edgeStyle=orthogonalEdgeStyle;rounded=0;orthogonalLoop=1;jettySize=auto;html=1;endArrow=none;endFill=0;" edge="1" parent="1">
          <mxGeometry relative="1" as="geometry">
            <mxPoint x="440" y="430" as="targetPoint" />
            <mxPoint x="370" y="250" as="sourcePoint" />
            <Array as="points">
              <mxPoint x="370" y="380" />
              <mxPoint x="440" y="380" />
              <mxPoint x="440" y="430" />
            </Array>
          </mxGeometry>
        </mxCell>
        <mxCell id="yFLwFhkpiV6u_VMQLXFh-69" style="edgeStyle=orthogonalEdgeStyle;rounded=0;orthogonalLoop=1;jettySize=auto;html=1;endArrow=none;endFill=0;" edge="1" parent="1">
          <mxGeometry relative="1" as="geometry">
            <mxPoint x="370" y="270" as="targetPoint" />
            <mxPoint x="410" y="250" as="sourcePoint" />
          </mxGeometry>
        </mxCell>
        <mxCell id="yFLwFhkpiV6u_VMQLXFh-4" value="EMPLEADO" style="whiteSpace=wrap;html=1;" vertex="1" parent="1">
          <mxGeometry x="350" y="180" width="120" height="60" as="geometry" />
        </mxCell>
        <mxCell id="yFLwFhkpiV6u_VMQLXFh-28" value="" style="edgeStyle=orthogonalEdgeStyle;rounded=0;orthogonalLoop=1;jettySize=auto;html=1;" edge="1" parent="1" source="yFLwFhkpiV6u_VMQLXFh-5" target="yFLwFhkpiV6u_VMQLXFh-27">
          <mxGeometry relative="1" as="geometry" />
        </mxCell>
        <mxCell id="yFLwFhkpiV6u_VMQLXFh-5" value="CLIENTE" style="whiteSpace=wrap;html=1;" vertex="1" parent="1">
          <mxGeometry x="570" y="180" width="120" height="60" as="geometry" />
        </mxCell>
        <mxCell id="yFLwFhkpiV6u_VMQLXFh-10" value="DIRECCION" style="ellipse;whiteSpace=wrap;html=1;" vertex="1" parent="1">
          <mxGeometry x="610" y="40" width="90" height="60" as="geometry" />
        </mxCell>
        <mxCell id="yFLwFhkpiV6u_VMQLXFh-14" value="" style="edgeStyle=orthogonalEdgeStyle;rounded=0;orthogonalLoop=1;jettySize=auto;html=1;" edge="1" parent="1" source="yFLwFhkpiV6u_VMQLXFh-12" target="yFLwFhkpiV6u_VMQLXFh-13">
          <mxGeometry relative="1" as="geometry" />
        </mxCell>
        <mxCell id="yFLwFhkpiV6u_VMQLXFh-12" value="VIVERO" style="whiteSpace=wrap;html=1;" vertex="1" parent="1">
          <mxGeometry x="40" y="180" width="120" height="60" as="geometry" />
        </mxCell>
        <mxCell id="yFLwFhkpiV6u_VMQLXFh-16" value="" style="edgeStyle=orthogonalEdgeStyle;rounded=0;orthogonalLoop=1;jettySize=auto;html=1;" edge="1" parent="1" source="yFLwFhkpiV6u_VMQLXFh-13" target="yFLwFhkpiV6u_VMQLXFh-15">
          <mxGeometry relative="1" as="geometry" />
        </mxCell>
        <mxCell id="yFLwFhkpiV6u_VMQLXFh-13" value="ofrece" style="rhombus;whiteSpace=wrap;html=1;" vertex="1" parent="1">
          <mxGeometry x="70" y="290" width="60" height="60" as="geometry" />
        </mxCell>
        <mxCell id="yFLwFhkpiV6u_VMQLXFh-15" value="ARTICULOS&amp;nbsp;&lt;br&gt;DE&lt;br&gt;JARDINERIA" style="whiteSpace=wrap;html=1;" vertex="1" parent="1">
          <mxGeometry x="40" y="410" width="120" height="60" as="geometry" />
        </mxCell>
        <mxCell id="yFLwFhkpiV6u_VMQLXFh-22" value="" style="edgeStyle=orthogonalEdgeStyle;rounded=0;orthogonalLoop=1;jettySize=auto;html=1;" edge="1" parent="1" source="yFLwFhkpiV6u_VMQLXFh-20" target="yFLwFhkpiV6u_VMQLXFh-12">
          <mxGeometry relative="1" as="geometry" />
        </mxCell>
        <mxCell id="yFLwFhkpiV6u_VMQLXFh-20" value="trabaja" style="rhombus;whiteSpace=wrap;html=1;" vertex="1" parent="1">
          <mxGeometry x="220" y="175" width="60" height="70" as="geometry" />
        </mxCell>
        <mxCell id="yFLwFhkpiV6u_VMQLXFh-31" value="" style="edgeStyle=orthogonalEdgeStyle;rounded=0;orthogonalLoop=1;jettySize=auto;html=1;" edge="1" parent="1" source="yFLwFhkpiV6u_VMQLXFh-23" target="yFLwFhkpiV6u_VMQLXFh-30">
          <mxGeometry relative="1" as="geometry" />
        </mxCell>
        <mxCell id="yFLwFhkpiV6u_VMQLXFh-47" style="edgeStyle=orthogonalEdgeStyle;rounded=0;orthogonalLoop=1;jettySize=auto;html=1;entryX=1;entryY=0.5;entryDx=0;entryDy=0;" edge="1" parent="1" source="yFLwFhkpiV6u_VMQLXFh-23" target="yFLwFhkpiV6u_VMQLXFh-44">
          <mxGeometry relative="1" as="geometry">
            <Array as="points">
              <mxPoint x="480" y="490" />
              <mxPoint x="450" y="490" />
              <mxPoint x="450" y="540" />
            </Array>
          </mxGeometry>
        </mxCell>
        <mxCell id="yFLwFhkpiV6u_VMQLXFh-48" style="edgeStyle=orthogonalEdgeStyle;rounded=0;orthogonalLoop=1;jettySize=auto;html=1;entryX=0;entryY=0.5;entryDx=0;entryDy=0;" edge="1" parent="1" source="yFLwFhkpiV6u_VMQLXFh-23" target="yFLwFhkpiV6u_VMQLXFh-46">
          <mxGeometry relative="1" as="geometry" />
        </mxCell>
        <mxCell id="yFLwFhkpiV6u_VMQLXFh-23" value="VENTAS" style="whiteSpace=wrap;html=1;" vertex="1" parent="1">
          <mxGeometry x="460" y="410" width="120" height="60" as="geometry" />
        </mxCell>
        <mxCell id="yFLwFhkpiV6u_VMQLXFh-26" value="" style="edgeStyle=orthogonalEdgeStyle;rounded=0;orthogonalLoop=1;jettySize=auto;html=1;" edge="1" parent="1" source="yFLwFhkpiV6u_VMQLXFh-24" target="yFLwFhkpiV6u_VMQLXFh-23">
          <mxGeometry relative="1" as="geometry">
            <Array as="points">
              <mxPoint x="490" y="320" />
            </Array>
          </mxGeometry>
        </mxCell>
        <mxCell id="yFLwFhkpiV6u_VMQLXFh-24" value="efectua" style="rhombus;whiteSpace=wrap;html=1;" vertex="1" parent="1">
          <mxGeometry x="380" y="290" width="60" height="60" as="geometry" />
        </mxCell>
        <mxCell id="yFLwFhkpiV6u_VMQLXFh-27" value="compra" style="rhombus;whiteSpace=wrap;html=1;" vertex="1" parent="1">
          <mxGeometry x="600" y="290" width="60" height="60" as="geometry" />
        </mxCell>
        <mxCell id="yFLwFhkpiV6u_VMQLXFh-32" value="" style="edgeStyle=orthogonalEdgeStyle;rounded=0;orthogonalLoop=1;jettySize=auto;html=1;" edge="1" parent="1" source="yFLwFhkpiV6u_VMQLXFh-30" target="yFLwFhkpiV6u_VMQLXFh-15">
          <mxGeometry relative="1" as="geometry" />
        </mxCell>
        <mxCell id="yFLwFhkpiV6u_VMQLXFh-30" value="registran" style="rhombus;whiteSpace=wrap;html=1;" vertex="1" parent="1">
          <mxGeometry x="260" y="405" width="70" height="70" as="geometry" />
        </mxCell>
        <mxCell id="yFLwFhkpiV6u_VMQLXFh-33" value="EFECTIVO" style="whiteSpace=wrap;html=1;" vertex="1" parent="1">
          <mxGeometry x="170" y="555" width="120" height="60" as="geometry" />
        </mxCell>
        <mxCell id="yFLwFhkpiV6u_VMQLXFh-34" value="DEBITO" style="whiteSpace=wrap;html=1;" vertex="1" parent="1">
          <mxGeometry x="390" y="725" width="120" height="60" as="geometry" />
        </mxCell>
        <mxCell id="yFLwFhkpiV6u_VMQLXFh-36" value="CREDITO" style="whiteSpace=wrap;html=1;" vertex="1" parent="1">
          <mxGeometry x="580" y="725" width="120" height="60" as="geometry" />
        </mxCell>
        <mxCell id="yFLwFhkpiV6u_VMQLXFh-39" style="edgeStyle=orthogonalEdgeStyle;rounded=0;orthogonalLoop=1;jettySize=auto;html=1;entryX=0.5;entryY=0;entryDx=0;entryDy=0;" edge="1" parent="1" source="yFLwFhkpiV6u_VMQLXFh-37" target="yFLwFhkpiV6u_VMQLXFh-34">
          <mxGeometry relative="1" as="geometry" />
        </mxCell>
        <mxCell id="yFLwFhkpiV6u_VMQLXFh-52" value="" style="edgeStyle=orthogonalEdgeStyle;rounded=0;orthogonalLoop=1;jettySize=auto;html=1;" edge="1" parent="1" source="yFLwFhkpiV6u_VMQLXFh-37" target="yFLwFhkpiV6u_VMQLXFh-51">
          <mxGeometry relative="1" as="geometry" />
        </mxCell>
        <mxCell id="yFLwFhkpiV6u_VMQLXFh-37" value="TARJETA" style="whiteSpace=wrap;html=1;" vertex="1" parent="1">
          <mxGeometry x="480" y="615" width="120" height="60" as="geometry" />
        </mxCell>
        <mxCell id="yFLwFhkpiV6u_VMQLXFh-38" style="edgeStyle=orthogonalEdgeStyle;rounded=0;orthogonalLoop=1;jettySize=auto;html=1;entryX=0.429;entryY=0.027;entryDx=0;entryDy=0;entryPerimeter=0;" edge="1" parent="1" source="yFLwFhkpiV6u_VMQLXFh-37" target="yFLwFhkpiV6u_VMQLXFh-36">
          <mxGeometry relative="1" as="geometry" />
        </mxCell>
        <mxCell id="yFLwFhkpiV6u_VMQLXFh-50" style="edgeStyle=orthogonalEdgeStyle;rounded=0;orthogonalLoop=1;jettySize=auto;html=1;entryX=1;entryY=0.5;entryDx=0;entryDy=0;" edge="1" parent="1" source="yFLwFhkpiV6u_VMQLXFh-44" target="yFLwFhkpiV6u_VMQLXFh-33">
          <mxGeometry relative="1" as="geometry" />
        </mxCell>
        <mxCell id="yFLwFhkpiV6u_VMQLXFh-44" value="se abona 1" style="rhombus;whiteSpace=wrap;html=1;" vertex="1" parent="1">
          <mxGeometry x="370" y="510" width="60" height="60" as="geometry" />
        </mxCell>
        <mxCell id="yFLwFhkpiV6u_VMQLXFh-49" style="edgeStyle=orthogonalEdgeStyle;rounded=0;orthogonalLoop=1;jettySize=auto;html=1;entryX=0.5;entryY=0;entryDx=0;entryDy=0;" edge="1" parent="1" source="yFLwFhkpiV6u_VMQLXFh-46" target="yFLwFhkpiV6u_VMQLXFh-37">
          <mxGeometry relative="1" as="geometry" />
        </mxCell>
        <mxCell id="yFLwFhkpiV6u_VMQLXFh-46" value="se abona&lt;div&gt;2&lt;/div&gt;" style="rhombus;whiteSpace=wrap;html=1;" vertex="1" parent="1">
          <mxGeometry x="540" y="495" width="60" height="60" as="geometry" />
        </mxCell>
        <mxCell id="yFLwFhkpiV6u_VMQLXFh-51" value="ENTIDAD&lt;div&gt;EMISORA&lt;/div&gt;" style="ellipse;whiteSpace=wrap;html=1;" vertex="1" parent="1">
          <mxGeometry x="640" y="610" width="80" height="55" as="geometry" />
        </mxCell>
        <mxCell id="yFLwFhkpiV6u_VMQLXFh-53" value="(T,E)" style="text;html=1;align=center;verticalAlign=middle;resizable=0;points=[];autosize=1;strokeColor=none;fillColor=none;" vertex="1" parent="1">
          <mxGeometry x="490" y="675" width="50" height="30" as="geometry" />
        </mxCell>
        <mxCell id="yFLwFhkpiV6u_VMQLXFh-54" value="(T,S)" style="text;html=1;align=center;verticalAlign=middle;resizable=0;points=[];autosize=1;strokeColor=none;fillColor=none;" vertex="1" parent="1">
          <mxGeometry x="515" y="108" width="50" height="30" as="geometry" />
        </mxCell>
        <mxCell id="yFLwFhkpiV6u_VMQLXFh-56" style="edgeStyle=orthogonalEdgeStyle;rounded=0;orthogonalLoop=1;jettySize=auto;html=1;entryX=0.667;entryY=0;entryDx=0;entryDy=0;entryPerimeter=0;" edge="1" parent="1" source="yFLwFhkpiV6u_VMQLXFh-27" target="yFLwFhkpiV6u_VMQLXFh-23">
          <mxGeometry relative="1" as="geometry" />
        </mxCell>
        <mxCell id="yFLwFhkpiV6u_VMQLXFh-57" value="&lt;pre style=&quot;font-size: 8px;&quot;&gt;&lt;font face=&quot;Times New Roman&quot; style=&quot;font-size: 8px;&quot;&gt;&amp;nbsp; D.N.I  0&lt;/font&gt;&lt;/pre&gt;&lt;pre style=&quot;font-size: 8px;&quot;&gt;&lt;font face=&quot;Times New Roman&quot; style=&quot;font-size: 8px;&quot;&gt;&amp;nbsp; &amp;nbsp;&lt;/font&gt;&lt;font face=&quot;CaNrH-AwIq16sJkNrBDg&quot; style=&quot;font-size: 8px;&quot;&gt;C.U.I.T  0&lt;/font&gt;&lt;/pre&gt;&lt;pre style=&quot;font-size: 8px;&quot;&gt;&lt;font face=&quot;CaNrH-AwIq16sJkNrBDg&quot; style=&quot;font-size: 8px;&quot;&gt;apellido o&lt;br&gt;&lt;/font&gt;&lt;font face=&quot;CaNrH-AwIq16sJkNrBDg&quot; style=&quot;font-size: 8px;&quot;&gt;&amp;nbsp;nombre o&lt;br&gt;&lt;/font&gt;&lt;font face=&quot;CaNrH-AwIq16sJkNrBDg&quot; style=&quot;font-size: 8px;&quot;&gt;tel0Ã©fono o&lt;br&gt;&lt;/font&gt;&lt;font face=&quot;CaNrH-AwIq16sJkNrBDg&quot; style=&quot;font-size: 8px;&quot;&gt;email o&lt;/font&gt;&lt;/pre&gt;" style="text;html=1;align=right;verticalAlign=middle;resizable=0;points=[];autosize=1;strokeColor=none;fillColor=none;" vertex="1" parent="1">
          <mxGeometry x="400" y="30" width="60" height="100" as="geometry" />
        </mxCell>
        <mxCell id="yFLwFhkpiV6u_VMQLXFh-60" value="&lt;div style=&quot;text-align: left;&quot;&gt;&lt;span style=&quot;background-color: initial;&quot;&gt;o Piso&lt;/span&gt;&lt;/div&gt;&lt;div&gt;&lt;div style=&quot;text-align: left;&quot;&gt;&lt;span style=&quot;background-color: initial;&quot;&gt;o Calle&lt;/span&gt;&lt;/div&gt;&lt;div style=&quot;text-align: left;&quot;&gt;o Depto&lt;/div&gt;&lt;div style=&quot;&quot;&gt;&lt;div style=&quot;text-align: left;&quot;&gt;o Nro&lt;/div&gt;&lt;br&gt;&lt;/div&gt;&lt;/div&gt;" style="text;html=1;align=center;verticalAlign=middle;resizable=0;points=[];autosize=1;strokeColor=none;fillColor=none;" vertex="1" parent="1">
          <mxGeometry x="690" y="25" width="70" height="90" as="geometry" />
        </mxCell>
        <mxCell id="yFLwFhkpiV6u_VMQLXFh-61" value="&lt;pre style=&quot;&quot;&gt;&lt;font face=&quot;Tahoma&quot; style=&quot;font-size: 8px;&quot;&gt;o fecha de ingreso&amp;nbsp;&lt;br&gt;&lt;/font&gt;&lt;font face=&quot;Tahoma&quot; style=&quot;font-size: 8px;&quot;&gt;o fecha de &lt;/font&gt;&lt;font face=&quot;Tahoma&quot; style=&quot;font-size: 8px;&quot;&gt;nacimiento&lt;br&gt;&lt;/font&gt;&lt;font face=&quot;Tahoma&quot; style=&quot;font-size: 8px;&quot;&gt;o cantidad de hijos&lt;br&gt;&lt;/font&gt;&lt;font face=&quot;xksM79U3T92QEQ6QIiyA&quot; style=&quot;font-size: 8px;&quot;&gt;0 nÃºmero Ãºnico&lt;/font&gt;&lt;/pre&gt;" style="text;html=1;align=left;verticalAlign=middle;resizable=0;points=[];autosize=1;strokeColor=none;fillColor=none;" vertex="1" parent="1">
          <mxGeometry x="470" y="160" width="100" height="100" as="geometry" />
        </mxCell>
        <mxCell id="yFLwFhkpiV6u_VMQLXFh-62" value="Â  Â  Codigo Unico" style="shape=waypoint;sketch=0;size=6;pointerEvents=1;points=[];fillColor=none;resizable=0;rotatable=0;perimeter=centerPerimeter;snapToPoint=1;align=left;" vertex="1" parent="1">
          <mxGeometry x="690" y="180" width="20" height="20" as="geometry" />
        </mxCell>
        <mxCell id="yFLwFhkpiV6u_VMQLXFh-63" value="&lt;pre style=&quot;font-size: 8px;&quot;&gt;o NÃºmero Ãºnico de artÃ­culo&lt;br&gt;o Precio&lt;br&gt;o TamaÃ±o&lt;br&gt;o Nombre&lt;br&gt;o Stock&lt;br&gt;&lt;span style=&quot;background-color: initial;&quot;&gt;o DescripciÃ³n&lt;/span&gt;&lt;/pre&gt;" style="text;html=1;align=left;verticalAlign=middle;resizable=0;points=[];autosize=1;strokeColor=none;fillColor=none;" vertex="1" parent="1">
          <mxGeometry y="460" width="150" height="90" as="geometry" />
        </mxCell>
        <mxCell id="yFLwFhkpiV6u_VMQLXFh-64" value="o Fecha&lt;br&gt;o Hora&lt;br&gt;o Cliente" style="text;html=1;align=left;verticalAlign=middle;resizable=0;points=[];autosize=1;strokeColor=none;fillColor=none;" vertex="1" parent="1">
          <mxGeometry x="590" y="405" width="70" height="60" as="geometry" />
        </mxCell>
        <mxCell id="yFLwFhkpiV6u_VMQLXFh-65" value="Â  Â  NÂ° de ticketÂ  Â Â " style="shape=waypoint;sketch=0;size=6;pointerEvents=1;points=[];fillColor=none;resizable=0;rotatable=0;perimeter=centerPerimeter;snapToPoint=1;align=right;fontSize=10;fontFamily=Verdana;" vertex="1" parent="1">
          <mxGeometry x="430" y="400" width="20" height="20" as="geometry" />
        </mxCell>
        <mxCell id="yFLwFhkpiV6u_VMQLXFh-66" value="" style="endArrow=none;html=1;rounded=0;" edge="1" parent="1">
          <mxGeometry relative="1" as="geometry">
            <mxPoint x="450" y="410" as="sourcePoint" />
            <mxPoint x="460" y="410" as="targetPoint" />
            <Array as="points">
              <mxPoint x="440" y="410" />
              <mxPoint x="450" y="410" />
            </Array>
          </mxGeometry>
        </mxCell>
        <mxCell id="yFLwFhkpiV6u_VMQLXFh-68" value="" style="shape=waypoint;sketch=0;size=6;pointerEvents=1;points=[];fillColor=none;resizable=0;rotatable=0;perimeter=centerPerimeter;snapToPoint=1;" vertex="1" parent="1">
          <mxGeometry x="430" y="420" width="20" height="20" as="geometry" />
        </mxCell>
        <mxCell id="yFLwFhkpiV6u_VMQLXFh-70" value="Â  Â  Â  Precio de Venta" style="shape=waypoint;sketch=0;size=6;pointerEvents=1;points=[];fillColor=none;resizable=0;rotatable=0;perimeter=centerPerimeter;snapToPoint=1;align=left;fontSize=9;" vertex="1" parent="1">
          <mxGeometry x="250" y="380" width="20" height="20" as="geometry" />
        </mxCell>
        <mxCell id="yFLwFhkpiV6u_VMQLXFh-71" value="Â  Â  Â  Cantidad Vendida" style="shape=waypoint;sketch=0;size=6;pointerEvents=1;points=[];fillColor=none;resizable=0;rotatable=0;perimeter=centerPerimeter;snapToPoint=1;align=left;fontSize=9;" vertex="1" parent="1">
          <mxGeometry x="250" y="475" width="20" height="20" as="geometry" />
        </mxCell>
        <mxCell id="yFLwFhkpiV6u_VMQLXFh-72" value="" style="endArrow=none;html=1;rounded=0;entryX=0.336;entryY=0.636;entryDx=0;entryDy=0;entryPerimeter=0;" edge="1" parent="1" source="yFLwFhkpiV6u_VMQLXFh-30" target="yFLwFhkpiV6u_VMQLXFh-70">
          <mxGeometry relative="1" as="geometry">
            <mxPoint x="210" y="405" as="sourcePoint" />
            <mxPoint x="250" y="405" as="targetPoint" />
          </mxGeometry>
        </mxCell>
        <mxCell id="yFLwFhkpiV6u_VMQLXFh-73" value="" style="endArrow=none;html=1;rounded=0;entryX=0.19;entryY=0.701;entryDx=0;entryDy=0;entryPerimeter=0;" edge="1" parent="1" source="yFLwFhkpiV6u_VMQLXFh-71" target="yFLwFhkpiV6u_VMQLXFh-30">
          <mxGeometry relative="1" as="geometry">
            <mxPoint x="270" y="479" as="sourcePoint" />
            <mxPoint x="249" y="450" as="targetPoint" />
          </mxGeometry>
        </mxCell>
        <mxCell id="yFLwFhkpiV6u_VMQLXFh-74" value="Constancia o" style="text;html=1;align=center;verticalAlign=middle;resizable=0;points=[];autosize=1;strokeColor=none;fillColor=none;" vertex="1" parent="1">
          <mxGeometry x="90" y="550" width="90" height="30" as="geometry" />
        </mxCell>
        <mxCell id="yFLwFhkpiV6u_VMQLXFh-75" value="nÃºmero de tarjeta o" style="text;html=1;align=center;verticalAlign=middle;resizable=0;points=[];autosize=1;strokeColor=none;fillColor=none;" vertex="1" parent="1">
          <mxGeometry x="360" y="610" width="130" height="30" as="geometry" />
        </mxCell>
        <mxCell id="yFLwFhkpiV6u_VMQLXFh-76" value="0 Nombre Unico&lt;div&gt;o Descripcion&lt;/div&gt;" style="text;html=1;align=left;verticalAlign=middle;resizable=0;points=[];autosize=1;strokeColor=none;fillColor=none;" vertex="1" parent="1">
          <mxGeometry x="717" y="600" width="110" height="40" as="geometry" />
        </mxCell>
        <mxCell id="yFLwFhkpiV6u_VMQLXFh-77" value="o Cantidad de Cuotas" style="text;html=1;align=center;verticalAlign=middle;resizable=0;points=[];autosize=1;strokeColor=none;fillColor=none;" vertex="1" parent="1">
          <mxGeometry x="570" y="785" width="140" height="30" as="geometry" />
        </mxCell>
      </root>
    </mxGraphModel>
  </diagram>
</mxfile>
